<?xml version="1.0" standalone="no"?>
<!DOCTYPE svg PUBLIC "-//W3C//DTD SVG 20010904//EN"
 "http://www.w3.org/TR/2001/REC-SVG-20010904/DTD/svg10.dtd">
<svg version="1.0" xmlns="http://www.w3.org/2000/svg"
 width="687.000000pt" height="363.000000pt" viewBox="0 0 687.000000 363.000000"
 preserveAspectRatio="xMidYMid meet">
<metadata>
Created by potrace 1.16, written by Peter Selinger 2001-2019
</metadata>
<g transform="translate(0.000000,363.000000) scale(0.100000,-0.100000)"
fill="#000000" stroke="none">
<path d="M2505 2756 c-32 -49 -66 -216 -72 -357 -5 -125 -7 -136 -27 -145 -11
-5 -22 -18 -24 -29 -5 -25 -31 -55 -56 -64 -16 -7 -15 -10 15 -29 41 -26 49
-17 49 56 0 44 3 52 18 52 10 0 30 -18 45 -40 14 -22 21 -40 14 -40 -8 0 -8
-3 0 -11 15 -15 88 19 132 61 26 26 35 30 42 19 5 -8 9 -17 9 -20 0 -3 15 -10
33 -16 17 -5 21 -8 9 -6 -28 4 -88 -53 -98 -92 -8 -33 23 -123 47 -135 13 -7
19 -22 19 -43 0 -39 22 -135 56 -244 17 -54 42 -106 74 -151 48 -69 173 -192
194 -192 6 0 43 15 82 34 74 35 179 124 214 181 22 36 59 140 60 167 0 10 8
33 17 53 14 30 15 43 6 78 -13 47 -10 55 12 37 9 -8 15 -8 15 -2 0 6 -4 14
-10 17 -5 3 -10 21 -10 39 0 19 -7 53 -15 76 -18 52 -18 50 -1 50 7 0 21 -10
29 -22 16 -23 16 -23 10 -1 -3 12 -19 27 -35 34 -28 12 -29 13 -12 26 24 17
35 17 28 -2 -6 -15 7 -21 19 -8 13 12 187 16 187 4 0 -6 -4 -11 -10 -11 -5 0
-10 -8 -10 -17 0 -10 -9 -29 -20 -43 -31 -40 -23 -49 9 -10 35 42 47 36 26
-13 -19 -46 -19 -62 1 -82 14 -13 14 -24 5 -80 -12 -69 -7 -145 15 -208 30
-85 152 -225 231 -265 65 -33 91 -35 138 -12 51 25 189 165 181 185 -2 7 2 16
10 19 22 9 61 105 95 235 23 89 31 141 32 220 1 69 -2 105 -9 108 -6 2 -20 11
-30 19 -17 14 -17 15 -1 10 23 -7 22 -1 -8 27 -25 22 -25 24 -10 60 8 20 19
37 24 37 5 0 7 8 4 19 -3 10 0 22 6 25 6 4 13 -9 16 -31 17 -102 54 -173 89
-173 46 0 96 77 96 148 0 12 5 22 11 22 12 0 10 -63 -7 -200 l-6 -55 48 65
c26 36 57 73 68 82 21 17 20 17 -20 18 -47 0 -53 10 -55 90 -1 25 -3 37 -6 28
-2 -10 -12 -18 -21 -18 -15 0 -17 14 -18 103 -1 119 -24 235 -65 325 -34 77
-50 78 -90 7 -44 -79 -59 -153 -59 -297 0 -133 -10 -179 -44 -207 -15 -13 -19
-13 -26 0 -11 17 -80 17 -160 0 -334 -71 -410 -75 -470 -24 l-30 25 0 -24 c0
-56 -10 -68 -55 -68 -57 0 -106 10 -99 21 3 5 14 9 24 9 11 0 26 11 35 24 13
19 14 32 4 74 -15 71 -33 80 -24 13 7 -48 5 -53 -24 -83 -17 -17 -33 -40 -37
-50 -8 -25 -23 -22 -34 7 -8 21 -16 25 -52 25 -58 0 -211 25 -236 39 -11 6
-52 11 -89 11 -49 0 -80 6 -108 20 -47 24 -67 25 -107 4 -49 -25 -53 -13 -49
160 2 142 1 159 -24 241 -38 124 -92 170 -130 111z"/>
<path d="M4531 2073 c-17 -20 -33 -50 -37 -67 -7 -31 -7 -31 -15 -6 -4 15 -7
-21 -8 -85 -1 -78 -9 -147 -27 -230 -55 -262 -58 -308 -20 -344 l24 -22 6 34
c9 51 66 158 78 151 7 -4 8 -2 4 4 -8 14 43 164 54 157 4 -2 5 7 2 22 -3 15
-1 24 5 20 5 -4 8 7 5 26 -2 18 0 27 5 20 12 -17 4 265 -9 315 -6 23 -16 42
-24 42 -7 0 -26 -17 -43 -37z"/>
<path d="M2289 2053 c0 -25 -1 -26 -9 -8 -6 13 -7 2 -3 -29 4 -33 3 -47 -4
-43 -7 4 -9 -10 -7 -41 2 -36 1 -40 -4 -17 -5 19 -7 -8 -7 -72 0 -56 3 -94 6
-85 7 18 21 -50 16 -78 -4 -25 44 -163 60 -176 10 -7 13 -16 8 -25 -5 -8 -4
-11 0 -6 5 4 16 0 26 -9 17 -15 20 -15 48 7 20 16 30 31 27 44 -2 11 -15 78
-30 148 -18 88 -26 160 -26 230 0 71 -3 97 -10 87 -9 -13 -11 -13 -20 0 -5 8
-10 20 -10 26 0 6 -9 19 -20 29 -11 10 -20 24 -20 32 0 26 -20 12 -21 -14z"/>
<path d="M4388 1833 c-20 -43 -39 -94 -43 -113 -8 -42 -48 -151 -87 -239 -25
-55 -77 -123 -177 -230 -93 -100 -141 -199 -126 -259 l7 -27 15 29 c9 18 11
31 5 35 -6 4 -3 19 8 41 l18 35 -5 -41 c-3 -27 0 -51 10 -70 11 -20 16 -24 17
-11 0 9 6 17 13 17 7 0 29 9 50 20 21 11 42 18 47 15 11 -7 14 -94 4 -119 -3
-9 -10 -16 -15 -16 -4 0 -6 7 -3 15 6 15 -11 22 -19 8 -3 -5 -20 -8 -39 -8
-27 0 -34 4 -36 23 -4 30 -22 28 -22 -2 0 -13 -3 -32 -6 -40 -5 -12 -2 -15 11
-10 15 6 17 2 10 -43 -5 -38 -2 -62 14 -102 28 -75 45 -91 97 -91 50 0 91 30
128 94 30 51 56 183 56 285 0 43 3 80 6 84 4 3 7 88 7 189 0 143 2 162 6 88 7
-100 15 -95 26 15 4 33 22 152 41 264 19 112 34 212 34 222 0 38 -18 17 -52
-58z"/>
<path d="M2483 1794 c-6 -17 9 -211 28 -359 5 -38 13 -119 19 -180 6 -60 16
-112 22 -116 16 -10 24 -174 9 -183 -6 -4 -11 -12 -11 -17 0 -6 4 -8 9 -5 5 3
11 -8 13 -26 5 -28 4 -29 -9 -13 -11 16 -13 17 -13 3 0 -9 5 -20 10 -23 6 -3
10 -19 10 -35 0 -20 15 -47 50 -89 57 -68 76 -81 119 -81 35 0 62 31 110 127
28 56 30 68 26 137 -3 60 -1 79 12 92 15 14 15 20 -1 70 -9 30 -37 82 -61 117
-87 124 -161 256 -236 422 -43 93 -82 171 -88 173 -6 2 -14 -4 -18 -14z m158
-754 c10 0 28 -9 39 -20 11 -11 20 -15 20 -9 0 6 7 9 15 6 8 -4 17 -2 20 4 10
16 22 1 29 -36 5 -24 12 -35 24 -34 10 0 12 3 5 6 -15 5 -18 73 -4 73 5 0 11
-6 14 -12 3 -10 7 -10 20 0 22 19 35 -8 36 -80 0 -48 -2 -56 -15 -51 -12 4
-15 15 -11 37 2 17 2 37 0 44 -9 24 -22 11 -25 -25 -3 -37 -3 -38 -47 -38 -26
0 -45 5 -48 13 -3 7 -13 10 -22 7 -27 -8 -87 37 -83 63 2 12 -2 31 -9 43 -10
19 -9 21 6 16 9 -4 25 -7 36 -7z"/>
<path d="M3220 1424 c0 -3 17 -26 39 -50 51 -58 54 -75 23 -118 -33 -47 -21
-62 36 -47 37 10 44 9 78 -14 36 -24 23 -37 -14 -14 -14 9 -37 4 -107 -20 -49
-18 -104 -43 -121 -56 -18 -14 -67 -83 -111 -157 -83 -139 -183 -330 -164
-313 18 18 81 127 81 141 0 8 5 14 10 14 6 0 10 6 10 13 0 8 10 22 22 33 l22
19 -22 -36 c-12 -20 -22 -39 -22 -43 0 -3 21 4 48 17 47 23 50 23 407 21 287
-2 369 -5 403 -17 25 -9 42 -11 42 -5 0 6 9 8 20 5 13 -3 20 0 20 9 0 18 -49
112 -63 121 -6 4 -7 1 -2 -7 5 -9 4 -11 -3 -6 -6 4 -16 24 -22 46 -18 68 -70
132 -136 167 -33 18 -82 38 -110 45 -27 7 -52 17 -55 22 -4 5 -17 1 -30 -8
-13 -9 -30 -16 -39 -16 -8 0 5 11 29 25 49 28 75 31 111 10 39 -22 57 -19 34
6 -29 32 -24 108 11 154 15 19 25 38 22 41 -6 7 -66 -24 -127 -65 -34 -24 -56
-31 -92 -31 -42 0 -58 7 -132 60 -83 59 -96 66 -96 54z m0 -421 c21 -15 23
-15 17 0 -7 19 17 13 46 -11 19 -17 24 -3 5 16 -9 9 -9 12 -1 12 7 0 15 -5 18
-11 4 -6 13 -8 21 -5 7 3 18 -4 24 -14 6 -11 15 -20 20 -20 15 0 12 30 -2 31
-7 0 1 5 17 10 43 13 86 2 78 -19 -6 -15 -5 -15 14 1 18 16 73 24 73 11 0 -3
-5 -15 -11 -27 -12 -21 -11 -21 8 -4 26 23 42 22 53 -5 8 -19 9 -18 4 10 -5
29 -3 32 18 32 29 0 42 -9 52 -35 8 -20 8 -20 23 3 18 25 43 30 43 7 0 -18 12
-19 28 -3 9 9 15 3 27 -25 8 -20 15 -48 15 -63 0 -24 -2 -26 -31 -20 -18 3
-38 1 -45 -5 -21 -17 -44 -3 -44 27 0 23 3 26 30 22 19 -3 31 0 35 10 8 21 4
22 -36 9 -27 -8 -39 -19 -48 -43 -10 -28 -16 -32 -63 -37 -39 -5 -56 -3 -69 8
-14 14 -18 14 -29 0 -27 -33 -50 -12 -50 46 0 16 -4 29 -9 29 -5 0 -9 -13 -9
-29 1 -36 -8 -51 -32 -51 -20 0 -37 40 -26 59 4 5 2 12 -3 15 -5 3 -12 -9 -15
-28 -9 -46 -31 -64 -45 -37 -6 11 -11 29 -11 40 0 15 -6 21 -22 21 -21 0 -21
-1 -4 -13 13 -10 16 -20 12 -35 -9 -26 -36 -30 -36 -5 0 14 -2 14 -21 -3 -21
-19 -21 -18 -40 5 -16 19 -20 21 -25 7 -9 -22 -31 -20 -44 4 -15 29 -3 43 32
36 20 -4 28 -2 26 6 -3 7 -23 12 -46 12 -48 0 -55 15 -18 39 21 14 25 14 39
-1 9 -9 20 -12 24 -8 5 5 2 11 -4 13 -17 6 -17 33 0 33 7 0 23 -8 37 -17z"/>
<path d="M3077 691 c-50 -32 -126 -115 -133 -144 -3 -16 -17 -47 -30 -70 -13
-23 -26 -61 -30 -84 -7 -47 -10 -50 -33 -28 -30 29 -110 85 -121 85 -6 0 -31
14 -55 30 -24 17 -57 33 -73 36 l-29 6 13 -59 c7 -32 17 -92 22 -134 8 -70 12
-79 46 -110 24 -23 49 -64 75 -124 l39 -90 671 -3 671 -2 9 22 c4 13 14 53 21
90 8 37 17 65 20 63 4 -3 15 15 24 38 10 26 34 59 61 82 28 24 45 46 45 60 0
12 7 42 15 65 8 23 12 53 9 66 l-6 24 -30 -25 c-17 -14 -43 -32 -59 -41 -27
-13 -29 -13 -29 3 0 14 -3 12 -13 -6 -6 -14 -19 -26 -27 -29 -9 -2 -7 2 5 11
11 8 17 18 13 22 -4 4 -19 -2 -34 -14 -15 -11 -44 -26 -66 -32 -33 -8 -39 -14
-35 -31 4 -13 -2 -28 -17 -42 -95 -91 -165 -146 -115 -90 33 36 43 57 57 116
13 50 12 54 -71 231 -52 112 -71 121 -227 99 -131 -19 -345 -15 -425 8 -48 14
-71 16 -76 9 -5 -8 -12 -8 -27 0 -25 13 -20 14 -55 -8z"/>
</g>
</svg>
